<svg width="28" height="28" viewBox="0 0 28 28" fill="none" xmlns="http://www.w3.org/2000/svg">
<path d="M26.9751 1.02492C26.3187 0.36867 25.4286 0 24.5004 0C23.5722 0 22.6821 0.36867 22.0257 1.02492L20.4831 2.56759L25.4324 7.51694L26.9751 5.97427C27.6313 5.31791 28 4.42775 28 3.4996C28 2.57144 27.6313 1.68128 26.9751 1.02492ZM24.0177 8.93161L19.0684 3.98226L2.86835 20.1823C2.04548 21.0048 1.44058 22.0193 1.10834 23.1343L0.0416729 26.7143C-0.00982571 26.8871 -0.0136666 27.0705 0.0305567 27.2453C0.0747801 27.4201 0.165423 27.5796 0.292894 27.7071C0.420365 27.8346 0.579924 27.9252 0.754687 27.9694C0.92945 28.0137 1.11292 28.0098 1.28568 27.9583L4.86569 26.8917C5.98066 26.5594 6.99524 25.9545 7.81769 25.1317L24.0177 8.93161Z" fill="white"/>
</svg>
